<?xml version="1.0" standalone="no"?>
<!DOCTYPE svg PUBLIC "-//W3C//DTD SVG 20010904//EN"
 "http://www.w3.org/TR/2001/REC-SVG-20010904/DTD/svg10.dtd">
<svg version="1.0" xmlns="http://www.w3.org/2000/svg"
 width="512.000000pt" height="512.000000pt" viewBox="0 0 512.000000 512.000000"
 preserveAspectRatio="xMidYMid meet">
<metadata>
Created by potrace 1.14, written by Peter Selinger 2001-2017
</metadata>
<g transform="translate(0.000000,512.000000) scale(0.100000,-0.100000)"
fill="#000000" stroke="none">
<path d="M3878 3922 c-14 -3 -16 -120 -16 -1141 l1 -1138 121 1 121 1 0 1133
c0 634 -3 1136 -8 1139 -10 6 -193 10 -219 5z"/>
<path d="M4694 3834 c-71 -24 -103 -91 -89 -188 9 -56 35 -92 82 -111 60 -25
143 -2 177 49 26 40 29 135 5 182 -32 66 -102 93 -175 68z"/>
<path d="M429 3781 c-1 -3 -2 -486 -3 -1072 l-1 -1067 122 0 c119 0 123 1 124
22 1 11 2 201 3 421 l1 399 190 2 c264 2 364 17 514 74 262 101 402 313 402
606 -1 359 -207 561 -621 610 -70 8 -730 12 -731 5z m711 -226 c174 -26 279
-91 338 -206 83 -164 48 -411 -72 -516 -104 -90 -237 -123 -527 -130 l-206 -5
2 433 c1 239 3 435 4 437 4 9 389 -2 461 -13z"/>
<path d="M2388 3662 l-28 -3 0 -98 0 -98 440 0 440 0 0 101 0 101 -413 0
c-226 0 -424 -1 -439 -3z"/>
<path d="M2787 3274 c-1 -2 -30 -4 -64 -5 -33 -1 -100 -11 -149 -21 -113 -23
-107 -22 -184 -51 -149 -57 -141 -48 -111 -124 46 -114 52 -125 64 -116 25 19
180 74 264 94 88 21 222 27 285 14 118 -26 191 -103 218 -232 12 -53 19 -222
11 -224 -3 -1 -33 -3 -66 -4 -290 -12 -363 -16 -385 -19 -14 -3 -41 -7 -60
-10 -77 -12 -98 -17 -175 -42 -154 -51 -264 -135 -317 -245 -31 -62 -40 -106
-43 -197 -7 -247 140 -427 382 -468 81 -14 256 -6 337 15 100 26 162 65 255
157 41 40 77 71 81 69 4 -3 11 -22 14 -42 4 -21 14 -70 22 -110 l16 -71 89 0
89 0 1 42 c3 249 -1 1122 -5 1156 -33 241 -140 365 -357 415 -58 13 -204 26
-212 19z m329 -976 c-6 -183 -40 -274 -138 -364 -78 -72 -181 -110 -317 -117
-204 -11 -324 82 -330 256 -5 157 73 256 237 306 85 25 115 30 232 37 52 4 96
7 97 8 1 0 51 2 112 4 l111 3 -4 -133z"/>
<path d="M4620 2447 l0 -804 123 0 122 -1 -1 797 c-1 438 -2 799 -3 804 0 4
-55 7 -121 7 l-120 0 0 -803z"/>
</g>
</svg>
